<svg xmlns="http://www.w3.org/2000/svg" viewBox="0 0 760 470" font-family="ui-sans-serif, system-ui, -apple-system, 'Hiragino Sans', 'Noto Sans JP', sans-serif" role="img" aria-label="セッションがスコープと権限を宣言し、横断する複数リポジトリを異なる権限で扱う構成図">
  <defs>
    <marker id="arrow" viewBox="0 0 10 10" refX="9" refY="5" markerWidth="7" markerHeight="7" orient="auto-start-reverse">
      <path d="M0,0 L10,5 L0,10 z" fill="#52525b"/>
    </marker>
  </defs>

  <rect x="0" y="0" width="760" height="470" rx="10" fill="#faf9f7"/>

  <!-- title -->
  <text x="380" y="34" text-anchor="middle" font-size="16" font-weight="700" fill="#27272a">セッション = スコープ + 権限の宣言</text>

  <!-- parent -->
  <rect x="120" y="52" width="300" height="50" rx="8" fill="#eef2ff" stroke="#6366f1" stroke-width="1.2"/>
  <text x="270" y="73" text-anchor="middle" font-size="13" font-weight="700" fill="#3730a3">親ディレクトリ</text>
  <text x="270" y="91" text-anchor="middle" font-size="11.5" fill="#4f46e5">スコープ・権限を定義 → セッションを生成 / 再設定</text>

  <!-- arrow parent -> session -->
  <path d="M250,102 L250,138" fill="none" stroke="#52525b" stroke-width="1.4" marker-end="url(#arrow)"/>
  <text x="262" y="124" font-size="10.5" fill="#71717a">生成</text>

  <!-- session -->
  <rect x="70" y="140" width="350" height="210" rx="10" fill="#ffffff" stroke="#d4d4d8" stroke-width="1.4"/>
  <text x="90" y="166" font-size="13.5" font-weight="700" fill="#27272a">セッション（1 作業単位）</text>

  <!-- manifest card -->
  <rect x="90" y="180" width="310" height="96" rx="7" fill="#f4f4f5" stroke="#e4e4e7"/>
  <text x="104" y="200" font-size="11.5" font-weight="700" fill="#3f3f46">manifest（宣言）</text>
  <text x="104" y="222" font-size="11.5" fill="#52525b">対象リポジトリ → 権限 を 1 枚に集約</text>
  <text x="104" y="242" font-size="11" fill="#71717a">repoA → read</text>
  <text x="104" y="259" font-size="11" fill="#71717a">repoB → write-local　repoC → write-push</text>

  <!-- self-constraint note -->
  <text x="90" y="302" font-size="11" fill="#b91c1c">⊘ セッション内からは権限定義を変更できない</text>
  <text x="90" y="322" font-size="11" fill="#52525b">（パス指定 deny：定義ファイルだけ書き換え禁止）</text>
  <text x="90" y="340" font-size="11" fill="#52525b">作業ログなどセッション内の領域は書ける</text>

  <!-- scope gate (dashed) -->
  <line x1="455" y1="118" x2="455" y2="372" stroke="#a1a1aa" stroke-width="1.3" stroke-dasharray="5 4"/>
  <text x="455" y="392" text-anchor="middle" font-size="10.5" fill="#71717a">スコープ境界：additionalDirectories に列挙した対象だけ可視</text>

  <!-- target repos -->
  <!-- read -->
  <rect x="520" y="120" width="210" height="54" rx="8" fill="#ffffff" stroke="#d4d4d8"/>
  <rect x="534" y="134" width="74" height="20" rx="10" fill="#e2e8f0"/>
  <text x="571" y="148" text-anchor="middle" font-size="10.5" font-weight="700" fill="#475569">read</text>
  <text x="620" y="148" text-anchor="middle" font-size="11" fill="#3f3f46">repoA</text>
  <text x="625" y="166" text-anchor="middle" font-size="10.5" fill="#71717a">参照のみ</text>

  <!-- write-local -->
  <rect x="520" y="200" width="210" height="54" rx="8" fill="#ffffff" stroke="#d4d4d8"/>
  <rect x="534" y="214" width="96" height="20" rx="10" fill="#fef3c7"/>
  <text x="582" y="228" text-anchor="middle" font-size="10.5" font-weight="700" fill="#b45309">write-local</text>
  <text x="660" y="228" text-anchor="middle" font-size="11" fill="#3f3f46">repoB</text>
  <text x="625" y="246" text-anchor="middle" font-size="10.5" fill="#71717a">編集 + ローカル commit（push 不可）</text>

  <!-- write-push -->
  <rect x="520" y="280" width="210" height="54" rx="8" fill="#ffffff" stroke="#d4d4d8"/>
  <rect x="534" y="294" width="96" height="20" rx="10" fill="#d1fae5"/>
  <text x="582" y="308" text-anchor="middle" font-size="10.5" font-weight="700" fill="#047857">write-push</text>
  <text x="660" y="308" text-anchor="middle" font-size="11" fill="#3f3f46">repoC</text>
  <text x="625" y="326" text-anchor="middle" font-size="10.5" fill="#71717a">push / PR まで（main 直 push は不可）</text>

  <!-- arrows session -> repos -->
  <path d="M420,186 C470,170 480,147 518,147" fill="none" stroke="#52525b" stroke-width="1.3" marker-end="url(#arrow)"/>
  <path d="M420,228 L518,227" fill="none" stroke="#52525b" stroke-width="1.3" marker-end="url(#arrow)"/>
  <path d="M420,250 C470,270 480,305 518,307" fill="none" stroke="#52525b" stroke-width="1.3" marker-end="url(#arrow)"/>

  <!-- push guard marker -->
  <g>
    <rect x="486" y="246" width="18" height="16" rx="3" fill="#fee2e2" stroke="#dc2626" stroke-width="1.1"/>
    <path d="M490,246 v-3 a5,5 0 0 1 10,0 v3" fill="none" stroke="#dc2626" stroke-width="1.1"/>
  </g>
  <text x="380" y="432" text-anchor="middle" font-size="10.5" fill="#b91c1c">🔒 push-guard：実行直前フックが push 先のパス→権限を判定し、許可外の push をブロック</text>
  <text x="380" y="450" text-anchor="middle" font-size="10.5" fill="#71717a">横断作業でも「読むだけのリポジトリ」は構造的に書き換えられない</text>
</svg>
